<svg width="53.000000" height="52.000000" viewBox="0 0 53 52" fill="none" xmlns="http://www.w3.org/2000/svg" xmlns:xlink="http://www.w3.org/1999/xlink">
	<desc>
			Created with Pixso.
	</desc>
	<defs/>
	<path id="Исключить" d="M39.75 13C39.75 16.4478 38.354 19.7544 35.8691 22.1924C33.3843 24.6304 30.0141 26 26.5 26C22.9859 26 19.6157 24.6304 17.1309 22.1924C14.646 19.7544 13.25 16.4478 13.25 13C13.25 9.55219 14.646 6.24561 17.1309 3.80762C19.6157 1.36963 22.9859 0 26.5 0C30.0141 0 33.3843 1.36963 35.8691 3.80762C38.354 6.24561 39.75 9.55219 39.75 13ZM21.8154 17.5962C20.573 16.3772 19.875 14.7239 19.875 13C19.875 11.2761 20.573 9.6228 21.8154 8.40381C23.0579 7.18481 24.7429 6.5 26.5 6.5C28.2571 6.5 29.9421 7.18481 31.1846 8.40381C32.427 9.6228 33.125 11.2761 33.125 13C33.125 14.7239 32.427 16.3772 31.1846 17.5962C29.9421 18.8152 28.2571 19.5 26.5 19.5C24.7429 19.5 23.0579 18.8152 21.8154 17.5962Z" clip-rule="evenodd" fill="#fff" fill-opacity="1.000000" fill-rule="evenodd"/>
	<path id="Исключить" d="M0 42.25L0 52L53 52L53 42.25C53 33.5725 35.3444 29.25 26.5 29.25C17.6556 29.25 0 33.5725 0 42.25ZM46.7062 42.2501L46.7062 45.8251L6.2937 45.8251L6.2937 42.2501C6.2937 40.17 16.6619 35.425 26.4999 35.425C36.3381 35.425 46.7062 40.17 46.7062 42.2501Z" clip-rule="evenodd" fill="#fff" fill-opacity="1.000000" fill-rule="evenodd"/>
</svg>
