<svg width="142" height="142" viewBox="0 0 142 142" fill="none" xmlns="http://www.w3.org/2000/svg">
<circle cx="71" cy="71" r="70.6872" fill="white" stroke="black" stroke-width="0.625551"/>
<path d="M76.1011 23.5508C74.2984 26.0176 72.3487 29.6523 70.965 34.0554M79.9209 72.7313C77.9979 70.5993 76.3777 68.4441 75.0248 66.2853M69.284 49.8123C76.0924 48.3798 89.566 41.2176 88.993 24.0283C82.7831 25.222 70.1253 30.8085 69.1735 43.605M69.284 49.8123C69.1119 48.104 69.0628 46.4289 69.116 44.7987M69.284 49.8123C69.5428 52.3814 70.0798 55.0259 70.965 57.7063M69.1735 43.605C69.1484 44.0001 69.1291 44.3981 69.116 44.7987M69.1735 43.605C69.3925 40.1661 70.0568 36.9453 70.965 34.0554M69.116 44.7987C72.4789 43.4459 79.6344 39.4032 81.3533 34.0554M70.965 34.0554C71.0854 30.3151 68.7478 23.0734 58.4342 24.0283C59.1484 29.201 62.6543 38.4482 70.965 34.0554ZM71.565 34.0554L66.0739 30.4743M70.965 57.7063C70.2896 53.6425 65.5965 44.5122 52.227 40.5014C51.0312 49.6635 53.1047 65.9314 70.965 57.7063ZM70.965 57.7063C63.8003 56.7638 60.1033 52.3692 59.1504 50.2897M70.965 57.7063C71.9012 60.5412 73.2268 63.4163 75.0248 66.2853M75.0248 66.2853C73.9511 61.7493 73.8568 51.5312 82.0695 46.9474C84.4557 51.006 86.3873 60.5556 75.0248 66.2853ZM75.0248 66.2853L78.7271 58.6457" stroke="#1F7F19" stroke-width="1.38537"/>
<path d="M14.7621 95.4118L15.2124 94.367C15.4826 94.5291 15.7709 94.6552 16.0771 94.7453C16.3894 94.8294 16.6926 94.8774 16.9868 94.8894C17.2871 94.8954 17.5573 94.8654 17.7975 94.7993C18.0437 94.7333 18.2388 94.6342 18.383 94.5021C18.5331 94.37 18.6081 94.2019 18.6081 93.9977C18.6081 93.7575 18.5091 93.5804 18.3109 93.4663C18.1127 93.3462 17.8485 93.2861 17.5183 93.2861H15.978V92.1873H17.4102C17.7044 92.1873 17.9326 92.1272 18.0947 92.0071C18.2629 91.887 18.3469 91.7219 18.3469 91.5117C18.3469 91.3316 18.2869 91.1875 18.1668 91.0794C18.0467 90.9653 17.8816 90.8812 17.6714 90.8272C17.4672 90.7731 17.236 90.7491 16.9778 90.7551C16.7196 90.7611 16.4524 90.8031 16.1762 90.8812C15.9 90.9593 15.6358 91.0674 15.3836 91.2055L14.9422 90.0796C15.3505 89.8694 15.7799 89.7253 16.2302 89.6472C16.6866 89.5632 17.125 89.5421 17.5453 89.5842C17.9716 89.6202 18.3559 89.7163 18.6982 89.8724C19.0405 90.0225 19.3137 90.2207 19.5179 90.4669C19.722 90.7131 19.8241 91.0043 19.8241 91.3406C19.8241 91.6408 19.7461 91.908 19.5899 92.1422C19.4338 92.3764 19.2146 92.5565 18.9324 92.6826C18.6562 92.8088 18.3379 92.8718 17.9776 92.8718L18.0137 92.5475C18.434 92.5475 18.7973 92.6196 19.1035 92.7637C19.4158 92.9018 19.656 93.097 19.8241 93.3492C19.9983 93.5954 20.0853 93.8806 20.0853 94.2049C20.0853 94.5051 20.0043 94.7753 19.8421 95.0155C19.686 95.2497 19.4698 95.4479 19.1936 95.61C18.9174 95.7721 18.6021 95.8922 18.2479 95.9703C17.8936 96.0483 17.5153 96.0814 17.1129 96.0694C16.7166 96.0573 16.3173 96.0003 15.915 95.8982C15.5127 95.7901 15.1284 95.628 14.7621 95.4118ZM20.5289 95.9703L23.3392 89.6652H24.7803L27.5996 95.9703H26.0684L23.7625 90.4038H24.339L22.0241 95.9703H20.5289ZM21.9341 94.6192L22.3214 93.5113H25.5639L25.9603 94.6192H21.9341ZM32.2007 94.7813L31.8764 95.1146V89.6652H33.3266V95.1146L32.9843 94.7813H35.6505L35.3082 95.1146V89.6652H36.7583V95.9703H28.4357V89.6652H29.8859V95.1146L29.5526 94.7813H32.2007ZM36.2629 97.2763V95.628L36.6052 95.9703H35.2812V94.7813H37.614V97.2763H36.2629ZM38.6128 95.9703V89.6652H40.0629V93.7725L43.0713 89.6652H44.4404V95.9703H42.9993V91.872L39.9909 95.9703H38.6128ZM47.3704 95.9703V90.5209L47.7036 90.8542H45.3618V89.6652H50.8291V90.8542H48.4873L48.8115 90.5209V95.9703H47.3704ZM56.0688 89.6652H57.5279V95.9703H56.0688V89.6652ZM53.2045 95.9703H51.7453V89.6652H53.2045V95.9703ZM56.1769 93.3852H53.0964V92.1512H56.1769V93.3852ZM59.1077 95.9703V89.6652H60.5578V93.7725L63.5662 89.6652H64.9353V95.9703H63.4942V91.872L60.4858 95.9703H59.1077ZM70.5854 95.9703L68.6219 92.9349L69.8018 92.2233L72.2428 95.9703H70.5854ZM66.4872 95.9703V89.6652H67.9373V95.9703H66.4872ZM67.514 93.4302V92.2143H69.7117V93.4302H67.514ZM69.9369 92.9799L68.5948 92.8178L70.6395 89.6652H72.1797L69.9369 92.9799ZM75.6795 95.9703V89.6652H81.4261V95.9703H79.9759V90.5209L80.3092 90.8542H76.7964L77.1296 90.5209V95.9703H75.6795ZM82.989 95.9703V89.6652H85.7182C86.2827 89.6652 86.7691 89.7583 87.1774 89.9445C87.5857 90.1246 87.901 90.3858 88.1231 90.7281C88.3453 91.0704 88.4564 91.4787 88.4564 91.9531C88.4564 92.4214 88.3453 92.8268 88.1231 93.169C87.901 93.5113 87.5857 93.7755 87.1774 93.9617C86.7691 94.1418 86.2827 94.2319 85.7182 94.2319H83.7997L84.4482 93.5744V95.9703H82.989ZM84.4482 93.7365L83.7997 93.0429H85.6372C86.0875 93.0429 86.4238 92.9469 86.646 92.7547C86.8681 92.5626 86.9792 92.2953 86.9792 91.9531C86.9792 91.6048 86.8681 91.3346 86.646 91.1424C86.4238 90.9503 86.0875 90.8542 85.6372 90.8542H83.7997L84.4482 90.1606V93.7365ZM89.419 95.9703V89.6652H90.8691V93.7725L93.8775 89.6652H95.2466V95.9703H93.8055V91.872L90.7971 95.9703H89.419ZM96.8165 95.9703V89.6652H99.5457C100.11 89.6652 100.597 89.7583 101.005 89.9445C101.413 90.1246 101.728 90.3858 101.951 90.7281C102.173 91.0704 102.284 91.4787 102.284 91.9531C102.284 92.4214 102.173 92.8268 101.951 93.169C101.728 93.5113 101.413 93.7755 101.005 93.9617C100.597 94.1418 100.11 94.2319 99.5457 94.2319H97.6271L98.2757 93.5744V95.9703H96.8165ZM98.2757 93.7365L97.6271 93.0429H99.4646C99.915 93.0429 100.251 92.9469 100.473 92.7547C100.696 92.5626 100.807 92.2953 100.807 91.9531C100.807 91.6048 100.696 91.3346 100.473 91.1424C100.251 90.9503 99.915 90.8542 99.4646 90.8542H97.6271L98.2757 90.1606V93.7365ZM106.352 96.0784C105.853 96.0784 105.391 95.9973 104.965 95.8352C104.544 95.673 104.178 95.4449 103.866 95.1506C103.56 94.8564 103.319 94.5111 103.145 94.1148C102.977 93.7185 102.893 93.2861 102.893 92.8178C102.893 92.3494 102.977 91.917 103.145 91.5207C103.319 91.1244 103.563 90.7791 103.875 90.4849C104.187 90.1907 104.553 89.9625 104.974 89.8003C105.394 89.6382 105.85 89.5572 106.343 89.5572C106.841 89.5572 107.298 89.6382 107.712 89.8003C108.132 89.9625 108.496 90.1907 108.802 90.4849C109.114 90.7791 109.357 91.1244 109.531 91.5207C109.705 91.911 109.793 92.3434 109.793 92.8178C109.793 93.2861 109.705 93.7215 109.531 94.1238C109.357 94.5201 109.114 94.8654 108.802 95.1596C108.496 95.4479 108.132 95.673 107.712 95.8352C107.298 95.9973 106.844 96.0784 106.352 96.0784ZM106.343 94.8354C106.625 94.8354 106.883 94.7873 107.117 94.6913C107.358 94.5952 107.568 94.4571 107.748 94.2769C107.928 94.0968 108.066 93.8836 108.162 93.6374C108.264 93.3912 108.315 93.118 108.315 92.8178C108.315 92.5175 108.264 92.2443 108.162 91.9981C108.066 91.7519 107.928 91.5387 107.748 91.3586C107.574 91.1784 107.367 91.0403 107.126 90.9443C106.886 90.8482 106.625 90.8001 106.343 90.8001C106.061 90.8001 105.799 90.8482 105.559 90.9443C105.325 91.0403 105.118 91.1784 104.938 91.3586C104.758 91.5387 104.616 91.7519 104.514 91.9981C104.418 92.2443 104.37 92.5175 104.37 92.8178C104.37 93.112 104.418 93.3852 104.514 93.6374C104.616 93.8836 104.755 94.0968 104.929 94.2769C105.109 94.4571 105.319 94.5952 105.559 94.6913C105.799 94.7873 106.061 94.8354 106.343 94.8354ZM114.92 95.3218V90.8542H112.758L112.731 91.7729C112.713 92.1632 112.686 92.5325 112.65 92.8808C112.62 93.2291 112.572 93.5473 112.506 93.8356C112.44 94.1178 112.353 94.358 112.245 94.5561C112.143 94.7543 112.014 94.8954 111.858 94.9795L110.299 94.7813C110.516 94.7873 110.693 94.7123 110.831 94.5561C110.975 94.4 111.089 94.1808 111.173 93.8986C111.257 93.6104 111.317 93.2741 111.353 92.8898C111.395 92.5055 111.425 92.0882 111.443 91.6378L111.515 89.6652H116.361V95.3218H114.92ZM110.092 97.2763L110.101 94.7813H117.244V97.2763H115.893V95.9703H111.443V97.2763H110.092ZM121.28 91.7369C122.042 91.7369 122.631 91.908 123.045 92.2503C123.459 92.5866 123.667 93.094 123.667 93.7725C123.667 94.4931 123.435 95.0395 122.973 95.4118C122.517 95.7841 121.883 95.9703 121.072 95.9703H118.226V89.6652H119.676V91.7369H121.28ZM120.991 94.8894C121.364 94.8894 121.658 94.7963 121.874 94.6102C122.09 94.424 122.198 94.1538 122.198 93.7995C122.198 93.4513 122.09 93.2021 121.874 93.0519C121.664 92.8958 121.37 92.8178 120.991 92.8178H119.676V94.8894H120.991ZM124.468 95.9703V89.6652H125.918V95.9703H124.468Z" fill="#1F7F19"/>
<path d="M26.4674 105.829C26.085 105.829 25.7302 105.767 25.403 105.643C25.0805 105.518 24.7994 105.343 24.5598 105.117C24.3249 104.892 24.1406 104.627 24.0069 104.323C23.8779 104.018 23.8134 103.687 23.8134 103.327C23.8134 102.968 23.8779 102.636 24.0069 102.332C24.1406 102.028 24.3272 101.763 24.5668 101.537C24.8064 101.312 25.0874 101.136 25.41 101.012C25.7325 100.888 26.0827 100.825 26.4605 100.825C26.8429 100.825 27.1931 100.888 27.511 101.012C27.8336 101.136 28.1123 101.312 28.3473 101.537C28.5869 101.763 28.7735 102.028 28.9071 102.332C29.0408 102.632 29.1076 102.963 29.1076 103.327C29.1076 103.687 29.0408 104.021 28.9071 104.329C28.7735 104.634 28.5869 104.899 28.3473 105.124C28.1123 105.345 27.8336 105.518 27.511 105.643C27.1931 105.767 26.8452 105.829 26.4674 105.829ZM26.4605 104.875C26.677 104.875 26.8752 104.839 27.0549 104.765C27.2392 104.691 27.4004 104.585 27.5387 104.447C27.6769 104.309 27.7829 104.145 27.8566 103.956C27.9349 103.767 27.9741 103.558 27.9741 103.327C27.9741 103.097 27.9349 102.887 27.8566 102.698C27.7829 102.509 27.6769 102.346 27.5387 102.208C27.405 102.069 27.2461 101.963 27.0618 101.89C26.8775 101.816 26.677 101.779 26.4605 101.779C26.2439 101.779 26.0435 101.816 25.8592 101.89C25.6795 101.963 25.5205 102.069 25.3823 102.208C25.2441 102.346 25.1358 102.509 25.0575 102.698C24.9837 102.887 24.9469 103.097 24.9469 103.327C24.9469 103.553 24.9837 103.763 25.0575 103.956C25.1358 104.145 25.2418 104.309 25.3754 104.447C25.5136 104.585 25.6749 104.691 25.8592 104.765C26.0435 104.839 26.2439 104.875 26.4605 104.875ZM29.2748 105.746L30.9404 103.562L30.9197 104.157L29.3232 102.028H30.5327L31.5417 103.417L31.0856 103.431L32.1292 102.028H33.2765L31.673 104.136V103.555L33.3318 105.746H32.1085L31.051 104.267L31.5003 104.329L30.4497 105.746H29.2748ZM36.0535 105.802C35.7402 105.802 35.466 105.733 35.231 105.594C34.996 105.456 34.8117 105.246 34.6781 104.965C34.5491 104.68 34.4846 104.32 34.4846 103.887C34.4846 103.449 34.5468 103.09 34.6712 102.809C34.7956 102.528 34.9753 102.318 35.2103 102.18C35.4453 102.042 35.7263 101.973 36.0535 101.973C36.4037 101.973 36.717 102.053 36.9934 102.215C37.2745 102.371 37.4957 102.592 37.6569 102.878C37.8228 103.164 37.9057 103.5 37.9057 103.887C37.9057 104.279 37.8228 104.617 37.6569 104.903C37.4957 105.189 37.2745 105.41 36.9934 105.567C36.717 105.723 36.4037 105.802 36.0535 105.802ZM33.8557 107.087V102.028H34.8855V102.788L34.8647 103.894L34.9338 104.993V107.087H33.8557ZM35.8669 104.917C36.0466 104.917 36.2055 104.875 36.3438 104.793C36.4866 104.71 36.5995 104.592 36.6824 104.44C36.77 104.283 36.8137 104.099 36.8137 103.887C36.8137 103.671 36.77 103.486 36.6824 103.334C36.5995 103.182 36.4866 103.065 36.3438 102.982C36.2055 102.899 36.0466 102.857 35.8669 102.857C35.6872 102.857 35.5259 102.899 35.3831 102.982C35.2402 103.065 35.1274 103.182 35.0444 103.334C34.9615 103.486 34.92 103.671 34.92 103.887C34.92 104.099 34.9615 104.283 35.0444 104.44C35.1274 104.592 35.2402 104.71 35.3831 104.793C35.5259 104.875 35.6872 104.917 35.8669 104.917ZM40.8261 105.746V105.021L40.757 104.862V103.562C40.757 103.332 40.6856 103.152 40.5428 103.023C40.4045 102.894 40.1903 102.83 39.9 102.83C39.7019 102.83 39.5061 102.862 39.3125 102.926C39.1236 102.986 38.9624 103.069 38.8287 103.175L38.4417 102.422C38.6444 102.279 38.8886 102.169 39.1743 102.09C39.46 102.012 39.7503 101.973 40.0452 101.973C40.6119 101.973 41.0519 102.106 41.3652 102.374C41.6786 102.641 41.8352 103.058 41.8352 103.625V105.746H40.8261ZM39.6927 105.802C39.4024 105.802 39.1536 105.753 38.9462 105.656C38.7389 105.555 38.5799 105.419 38.4694 105.249C38.3588 105.078 38.3035 104.887 38.3035 104.675C38.3035 104.454 38.3565 104.26 38.4624 104.095C38.573 103.929 38.7458 103.8 38.9808 103.707C39.2158 103.611 39.5222 103.562 39.9 103.562H40.8883V104.191H40.0175C39.7641 104.191 39.589 104.233 39.4922 104.316C39.4001 104.399 39.354 104.502 39.354 104.627C39.354 104.765 39.407 104.875 39.513 104.958C39.6236 105.037 39.7733 105.076 39.9622 105.076C40.1419 105.076 40.3032 105.034 40.446 104.952C40.5889 104.864 40.6925 104.737 40.757 104.571L40.9229 105.069C40.8446 105.309 40.7017 105.491 40.4944 105.615C40.2871 105.739 40.0198 105.802 39.6927 105.802ZM42.7718 105.746V102.028H43.8431V103.479H45.4604V102.028H46.5385V105.746H45.4604V104.357H43.8431V105.746H42.7718ZM49.7961 105.746V105.021L49.727 104.862V103.562C49.727 103.332 49.6556 103.152 49.5128 103.023C49.3745 102.894 49.1603 102.83 48.87 102.83C48.6719 102.83 48.4761 102.862 48.2825 102.926C48.0936 102.986 47.9324 103.069 47.7987 103.175L47.4117 102.422C47.6144 102.279 47.8586 102.169 48.1443 102.09C48.43 102.012 48.7203 101.973 49.0152 101.973C49.5819 101.973 50.0219 102.106 50.3352 102.374C50.6486 102.641 50.8052 103.058 50.8052 103.625V105.746H49.7961ZM48.6627 105.802C48.3724 105.802 48.1236 105.753 47.9162 105.656C47.7089 105.555 47.5499 105.419 47.4393 105.249C47.3288 105.078 47.2735 104.887 47.2735 104.675C47.2735 104.454 47.3265 104.26 47.4324 104.095C47.543 103.929 47.7158 103.8 47.9508 103.707C48.1858 103.611 48.4922 103.562 48.87 103.562H49.8583V104.191H48.9875C48.7341 104.191 48.559 104.233 48.4622 104.316C48.3701 104.399 48.324 104.502 48.324 104.627C48.324 104.765 48.377 104.875 48.483 104.958C48.5936 105.037 48.7433 105.076 48.9322 105.076C49.1119 105.076 49.2732 105.034 49.416 104.952C49.5589 104.864 49.6625 104.737 49.727 104.571L49.8929 105.069C49.8146 105.309 49.6717 105.491 49.4644 105.615C49.2571 105.739 48.9898 105.802 48.6627 105.802ZM53.6992 105.746V102.028H57.3968V105.746H56.3186V102.671L56.5605 102.913H54.5285L54.7704 102.671V105.746H53.6992ZM60.6214 105.802C60.3081 105.802 60.034 105.733 59.799 105.594C59.564 105.456 59.3797 105.246 59.2461 104.965C59.117 104.68 59.0525 104.32 59.0525 103.887C59.0525 103.449 59.1147 103.09 59.2391 102.809C59.3635 102.528 59.5432 102.318 59.7782 102.18C60.0132 102.042 60.2943 101.973 60.6214 101.973C60.9716 101.973 61.2849 102.053 61.5614 102.215C61.8424 102.371 62.0636 102.592 62.2249 102.878C62.3907 103.164 62.4737 103.5 62.4737 103.887C62.4737 104.279 62.3907 104.617 62.2249 104.903C62.0636 105.189 61.8424 105.41 61.5614 105.567C61.2849 105.723 60.9716 105.802 60.6214 105.802ZM58.4236 107.087V102.028H59.4534V102.788L59.4327 103.894L59.5018 104.993V107.087H58.4236ZM60.4348 104.917C60.6145 104.917 60.7735 104.875 60.9117 104.793C61.0545 104.71 61.1674 104.592 61.2504 104.44C61.3379 104.283 61.3817 104.099 61.3817 103.887C61.3817 103.671 61.3379 103.486 61.2504 103.334C61.1674 103.182 61.0545 103.065 60.9117 102.982C60.7735 102.899 60.6145 102.857 60.4348 102.857C60.2551 102.857 60.0939 102.899 59.951 102.982C59.8082 103.065 59.6953 103.182 59.6124 103.334C59.5294 103.486 59.488 103.671 59.488 103.887C59.488 104.099 59.5294 104.283 59.6124 104.44C59.6953 104.592 59.8082 104.71 59.951 104.793C60.0939 104.875 60.2551 104.917 60.4348 104.917ZM63.2294 105.746V102.028H64.3006V104.24L66.1114 102.028H67.0997V105.746H66.0285V103.535L64.2246 105.746H63.2294ZM70.3271 105.802C70.0138 105.802 69.7396 105.733 69.5046 105.594C69.2697 105.456 69.0854 105.246 68.9517 104.965C68.8227 104.68 68.7582 104.32 68.7582 103.887C68.7582 103.449 68.8204 103.09 68.9448 102.809C69.0692 102.528 69.2489 102.318 69.4839 102.18C69.7189 102.042 70 101.973 70.3271 101.973C70.6773 101.973 70.9906 102.053 71.2671 102.215C71.5481 102.371 71.7693 102.592 71.9306 102.878C72.0964 103.164 72.1794 103.5 72.1794 103.887C72.1794 104.279 72.0964 104.617 71.9306 104.903C71.7693 105.189 71.5481 105.41 71.2671 105.567C70.9906 105.723 70.6773 105.802 70.3271 105.802ZM68.1293 107.087V102.028H69.1591V102.788L69.1383 103.894L69.2075 104.993V107.087H68.1293ZM70.1405 104.917C70.3202 104.917 70.4792 104.875 70.6174 104.793C70.7602 104.71 70.8731 104.592 70.956 104.44C71.0436 104.283 71.0874 104.099 71.0874 103.887C71.0874 103.671 71.0436 103.486 70.956 103.334C70.8731 103.182 70.7602 103.065 70.6174 102.982C70.4792 102.899 70.3202 102.857 70.1405 102.857C69.9608 102.857 69.7995 102.899 69.6567 102.982C69.5139 103.065 69.401 103.182 69.318 103.334C69.2351 103.486 69.1936 103.671 69.1936 103.887C69.1936 104.099 69.2351 104.283 69.318 104.44C69.401 104.592 69.5139 104.71 69.6567 104.793C69.7995 104.875 69.9608 104.917 70.1405 104.917ZM74.6767 105.802C74.2805 105.802 73.928 105.719 73.6193 105.553C73.3152 105.387 73.0733 105.161 72.8936 104.875C72.7185 104.585 72.6309 104.256 72.6309 103.887C72.6309 103.514 72.7185 103.185 72.8936 102.899C73.0733 102.609 73.3152 102.383 73.6193 102.222C73.928 102.056 74.2805 101.973 74.6767 101.973C75.0684 101.973 75.4185 102.056 75.7272 102.222C76.036 102.383 76.2779 102.606 76.4529 102.892C76.628 103.178 76.7156 103.509 76.7156 103.887C76.7156 104.256 76.628 104.585 76.4529 104.875C76.2779 105.161 76.036 105.387 75.7272 105.553C75.4185 105.719 75.0684 105.802 74.6767 105.802ZM74.6767 104.917C74.8564 104.917 75.0177 104.875 75.1605 104.793C75.3033 104.71 75.4162 104.592 75.4992 104.44C75.5821 104.283 75.6236 104.099 75.6236 103.887C75.6236 103.671 75.5821 103.486 75.4992 103.334C75.4162 103.182 75.3033 103.065 75.1605 102.982C75.0177 102.899 74.8564 102.857 74.6767 102.857C74.497 102.857 74.3358 102.899 74.1929 102.982C74.0501 103.065 73.9349 103.182 73.8473 103.334C73.7644 103.486 73.7229 103.671 73.7229 103.887C73.7229 104.099 73.7644 104.283 73.8473 104.44C73.9349 104.592 74.0501 104.71 74.1929 104.793C74.3358 104.875 74.497 104.917 74.6767 104.917ZM79.9604 105.263V102.913H78.744L78.7232 103.39C78.714 103.588 78.7025 103.777 78.6887 103.956C78.6749 104.136 78.6472 104.3 78.6057 104.447C78.5689 104.59 78.5136 104.712 78.4399 104.813C78.3662 104.91 78.2671 104.977 78.1427 105.014L77.0783 104.862C77.2119 104.862 77.3202 104.823 77.4032 104.744C77.4861 104.661 77.5506 104.548 77.5967 104.406C77.6428 104.258 77.6773 104.092 77.7004 103.908C77.7234 103.719 77.7395 103.521 77.7487 103.314L77.7971 102.028H81.0386V105.263H79.9604ZM76.9539 106.548V104.862H81.5707V106.548H80.5686V105.746H77.9561V106.548H76.9539ZM86.0782 105.746V102.028H87.1494V105.746H86.0782ZM84.2052 103.217C84.6936 103.221 85.0599 103.332 85.3041 103.549C85.5529 103.76 85.6773 104.062 85.6773 104.454C85.6773 104.864 85.5368 105.184 85.2557 105.415C84.9747 105.64 84.5761 105.753 84.06 105.753L82.2493 105.746V102.028H83.3205V103.217H84.2052ZM83.9633 104.986C84.1706 104.991 84.3296 104.947 84.4402 104.855C84.5508 104.763 84.606 104.624 84.606 104.44C84.606 104.256 84.5508 104.124 84.4402 104.046C84.3296 103.963 84.1706 103.919 83.9633 103.915L83.3205 103.908V104.986H83.9633ZM89.9871 104.233V103.369H91.9431V104.233H89.9871ZM95.509 104.24V103.5H97.4511V104.24H95.509ZM96.0273 101.959C96.4328 101.959 96.7922 102.042 97.1055 102.208C97.4188 102.369 97.6653 102.595 97.845 102.885C98.0247 103.175 98.1146 103.509 98.1146 103.887C98.1146 104.26 98.0247 104.594 97.845 104.889C97.6653 105.18 97.4188 105.408 97.1055 105.574C96.7922 105.735 96.4328 105.815 96.0273 105.815C95.6725 105.815 95.35 105.758 95.0597 105.643C94.7741 105.523 94.5368 105.352 94.3479 105.131L94.963 104.551C95.1012 104.689 95.2533 104.797 95.4191 104.875C95.5896 104.949 95.7785 104.986 95.9859 104.986C96.2116 104.986 96.4075 104.94 96.5733 104.848C96.7438 104.756 96.8774 104.627 96.9742 104.461C97.071 104.295 97.1193 104.104 97.1193 103.887C97.1193 103.666 97.071 103.472 96.9742 103.307C96.8774 103.141 96.7438 103.012 96.5733 102.92C96.4075 102.827 96.2116 102.781 95.9859 102.781C95.7785 102.781 95.5896 102.821 95.4191 102.899C95.2533 102.973 95.1012 103.081 94.963 103.224L94.3479 102.65C94.5368 102.424 94.7741 102.254 95.0597 102.139C95.35 102.019 95.6725 101.959 96.0273 101.959ZM99.5059 105.746V102.664L99.7478 102.913H98.2481V102.028H101.835V102.913H100.335L100.577 102.664V105.746H99.5059ZM103.996 105.802C103.6 105.802 103.248 105.719 102.939 105.553C102.635 105.387 102.393 105.161 102.213 104.875C102.038 104.585 101.95 104.256 101.95 103.887C101.95 103.514 102.038 103.185 102.213 102.899C102.393 102.609 102.635 102.383 102.939 102.222C103.248 102.056 103.6 101.973 103.996 101.973C104.388 101.973 104.738 102.056 105.047 102.222C105.356 102.383 105.597 102.606 105.772 102.892C105.948 103.178 106.035 103.509 106.035 103.887C106.035 104.256 105.948 104.585 105.772 104.875C105.597 105.161 105.356 105.387 105.047 105.553C104.738 105.719 104.388 105.802 103.996 105.802ZM103.996 104.917C104.176 104.917 104.337 104.875 104.48 104.793C104.623 104.71 104.736 104.592 104.819 104.44C104.902 104.283 104.943 104.099 104.943 103.887C104.943 103.671 104.902 103.486 104.819 103.334C104.736 103.182 104.623 103.065 104.48 102.982C104.337 102.899 104.176 102.857 103.996 102.857C103.817 102.857 103.655 102.899 103.512 102.982C103.37 103.065 103.254 103.182 103.167 103.334C103.084 103.486 103.042 103.671 103.042 103.887C103.042 104.099 103.084 104.283 103.167 104.44C103.254 104.592 103.37 104.71 103.512 104.793C103.655 104.875 103.817 104.917 103.996 104.917ZM109.529 105.746V102.664L109.771 102.913H108.271V102.028H111.858V102.913H110.358L110.6 102.664V105.746H109.529ZM116.262 105.746V102.028H117.333V105.746H116.262ZM114.389 103.217C114.877 103.221 115.243 103.332 115.488 103.549C115.736 103.76 115.861 104.062 115.861 104.454C115.861 104.864 115.72 105.184 115.439 105.415C115.158 105.64 114.76 105.753 114.244 105.753L112.433 105.746V102.028H113.504V103.217H114.389ZM114.147 104.986C114.354 104.991 114.513 104.947 114.624 104.855C114.734 104.763 114.79 104.624 114.79 104.44C114.79 104.256 114.734 104.124 114.624 104.046C114.513 103.963 114.354 103.919 114.147 103.915L113.504 103.908V104.986H114.147Z" fill="#1F7F19"/>
<path d="M139.091 87.2033C134.373 84.9816 124.879 78.2959 124.644 69.3263C127.504 69.4958 131.281 70.2624 134.429 71.968C139.164 74.5338 142.474 79.2244 139.091 87.2033ZM139.091 87.2033C138.731 81.3584 134.979 77.6108 133.148 76.4677" stroke="#1F7F19" stroke-width="1.38537"/>
<path d="M76.8878 140.615C75.2905 135.65 69.8796 125.376 61.0146 123.991C60.8153 126.849 61.0903 130.694 62.3775 134.034C64.3138 139.06 68.5403 142.945 76.8878 140.615ZM76.8878 140.615C71.1375 139.506 67.9029 135.304 67.0044 133.342" stroke="#1F7F19" stroke-width="1.38537"/>
<path d="M2.07293 86.5428C7.201 85.596 18.0851 81.5489 20.597 72.935C17.7881 72.3705 13.9398 72.1497 10.4615 72.9974C5.22907 74.2725 0.833762 77.9654 2.07293 86.5428ZM2.07293 86.5428C3.91018 80.9825 8.4928 78.3141 10.5545 77.6749" stroke="#1F7F19" stroke-width="1.38537"/>
</svg>
