<svg width="42" height="42" viewBox="0 0 42 42" fill="none" xmlns="http://www.w3.org/2000/svg">
<g clip-path="url(#clip0_226_395)">
<path d="M21.0164 42.0327C32.6234 42.0327 42.0327 32.6234 42.0327 21.0164C42.0327 9.40935 32.6234 0 21.0164 0C9.40935 0 0 9.40935 0 21.0164C0 32.6234 9.40935 42.0327 21.0164 42.0327Z" fill="url(#paint0_linear_226_395)"/>
<path fill-rule="evenodd" clip-rule="evenodd" d="M9.49323 20.7872C15.6148 18.1029 19.7068 16.3679 21.7691 15.5168C27.5961 13.0943 28.8073 12.6688 29.593 12.636C29.7567 12.636 30.1495 12.6688 30.4114 12.8652C30.6078 13.0288 30.6733 13.258 30.706 13.4217C30.7388 13.5854 30.7715 13.9454 30.7387 14.2401C30.4114 17.5464 29.0692 25.6321 28.349 29.3313C28.0544 30.9026 27.4652 31.4263 26.9087 31.4918C25.6974 31.59 24.7481 30.6734 23.5696 29.9205C21.7364 28.7093 20.6889 27.9564 18.8884 26.7779C16.826 25.403 18.1682 24.65 19.3467 23.4388C19.6413 23.1115 25.0427 18.2338 25.1409 17.7755C25.1409 17.7101 25.1737 17.5136 25.0427 17.4154C24.9118 17.3172 24.7481 17.35 24.6172 17.3827C24.4207 17.4154 21.4745 19.3796 15.7458 23.2424C14.8946 23.8317 14.1417 24.0935 13.4543 24.0935C12.7013 24.0935 11.261 23.668 10.1807 23.3079C8.87125 22.8823 7.8237 22.6532 7.92191 21.933C7.98738 21.5729 8.51116 21.1801 9.49323 20.7872Z" fill="white"/>
</g>
<defs>
<linearGradient id="paint0_linear_226_395" x1="0" y1="21.0011" x2="42.0023" y2="21.0011" gradientUnits="userSpaceOnUse">
<stop stop-color="#2AABEE"/>
<stop offset="1" stop-color="#229ED9"/>
</linearGradient>
<clipPath id="clip0_226_395">
<rect width="42" height="42" fill="white"/>
</clipPath>
</defs>
</svg>
