<svg width="41" height="41" viewBox="0 0 41 41" fill="none" xmlns="http://www.w3.org/2000/svg">
<g clip-path="url(#clip0_226_400)">
<path d="M0 19.6458C0 10.3847 0 5.75413 2.87706 2.87706C5.75413 0 10.3847 0 19.6458 0H21.3542C30.6153 0 35.2459 0 38.1229 2.87706C41 5.75413 41 10.3847 41 19.6458V21.3542C41 30.6153 41 35.2459 38.1229 38.1229C35.2459 41 30.6153 41 21.3542 41H19.6458C10.3847 41 5.75413 41 2.87706 38.1229C0 35.2459 0 30.6153 0 21.3542L0 19.6458Z" fill="#2787F5"/>
<path fill-rule="evenodd" clip-rule="evenodd" d="M11.1049 12.8125H8.11461C7.26024 12.8125 7.08936 13.2146 7.08936 13.658C7.08936 14.4499 8.10313 18.3772 11.8097 23.5715C14.2807 27.1188 17.7621 29.0417 20.9301 29.0417C22.8309 29.0417 23.066 28.6146 23.066 27.879V25.1979C23.066 24.3437 23.2461 24.1733 23.8479 24.1733C24.2915 24.1733 25.0518 24.395 26.8259 26.1053C28.8534 28.1323 29.1877 29.0417 30.3281 29.0417H33.3183C34.1728 29.0417 34.5999 28.6146 34.3535 27.7718C34.0838 26.9318 33.1158 25.713 31.8313 24.2683C31.1343 23.4448 30.0889 22.558 29.7721 22.1145C29.3286 21.5445 29.4553 21.291 29.7721 20.7844C29.7721 20.7844 33.4153 15.6534 33.7955 13.9115C33.9855 13.2779 33.7955 12.8125 32.8912 12.8125H29.9009C29.1406 12.8125 28.7901 13.2146 28.5999 13.658C28.5999 13.658 27.0793 17.3637 24.9251 19.7708C24.2281 20.4675 23.9113 20.6893 23.5311 20.6893C23.3411 20.6893 23.0659 20.4675 23.0659 19.8342V13.9115C23.0659 13.1513 22.8453 12.8125 22.2116 12.8125H17.5126C17.0375 12.8125 16.7517 13.1653 16.7517 13.4997C16.7517 14.2203 17.8288 14.3865 17.9398 16.4135V20.816C17.9398 21.7812 17.7654 21.9563 17.3853 21.9563C16.3716 21.9563 13.9057 18.234 12.4432 13.9748C12.1566 13.1469 11.8691 12.8125 11.1049 12.8125Z" fill="white"/>
</g>
<defs>
<clipPath id="clip0_226_400">
<rect width="41" height="41" fill="white"/>
</clipPath>
</defs>
</svg>
