<svg width="713.900879" height="695.087646" viewBox="0 0 713.901 695.088" fill="none" xmlns="http://www.w3.org/2000/svg" xmlns:xlink="http://www.w3.org/1999/xlink">
	<desc>
			Created with Pixso.
	</desc>
	<defs/>
	<path id="Ellipse 4" d="M656.21 624.09C548.8 740.32 327.74 710.73 162.46 558C-2.82 405.26 -49.73 187.22 57.68 70.99C165.09 -45.25 386.15 -15.65 551.43 137.08C716.71 289.82 763.62 507.86 656.21 624.09Z" fill="#D9D9D9" fill-opacity="0" fill-rule="evenodd"/>
	<path id="Ellipse 4" d="M162.46 558C327.74 710.73 548.8 740.32 656.21 624.09C763.62 507.86 716.71 289.82 551.43 137.08C386.15 -15.65 165.09 -45.25 57.68 70.99C-49.73 187.22 -2.82 405.26 162.46 558ZM295.56 646.41C248.56 623.31 204.87 593.1 164.5 555.79C124.12 518.48 90.57 477.31 63.84 432.28C38.04 388.82 20.34 344.79 10.74 300.17C1.17 255.65 0.39 214.01 8.43 175.25C14.43 146.34 25.05 120.53 40.28 97.82C46.13 89.09 52.67 80.83 59.88 73.02C67.1 65.21 74.83 58.05 83.06 51.52C104.5 34.55 129.39 21.93 157.74 13.68C195.75 2.61 237.32 0.1 282.46 6.14C327.69 12.2 372.99 26.37 418.34 48.67C465.33 71.77 509.02 101.97 549.39 139.29C589.77 176.6 623.32 217.77 650.05 262.8C675.85 306.26 693.55 350.29 703.15 394.91C712.73 439.43 713.5 481.07 705.46 519.83C699.46 548.74 688.85 574.54 673.62 597.25C667.76 605.97 661.23 614.25 654.01 622.06C646.79 629.87 639.06 637.03 630.82 643.56C609.39 660.53 584.5 673.15 556.15 681.4C518.15 692.46 476.57 694.98 431.43 688.93C386.2 682.88 340.91 668.7 295.56 646.41Z" fill="#000000" fill-opacity="1.000000" fill-rule="evenodd"/>
</svg>
